<svg width="1485" height="954" viewBox="0 0 1485 954" fill="none" xmlns="http://www.w3.org/2000/svg">
<path d="M756.806 10C901.875 10.0002 1019.67 128.984 1019.67 276C1019.67 423.016 901.875 542 756.806 542C611.736 542 493.939 423.016 493.939 276C493.939 128.984 611.736 10 756.806 10Z" stroke="#3498DB" stroke-width="20"/>
<path d="M429 276L1084 276.038" stroke="#3498DB" stroke-width="20" stroke-linecap="round"/>
<path d="M99.1211 684.809L47.7148 846H0.136719L73.8281 646.938H103.906L99.1211 684.809ZM141.777 846L90.2344 684.809L84.9023 646.938H115.391L189.355 846H141.777ZM139.59 771.898V806.352H35.8203V771.898H139.59ZM248.691 636V846H205.898V636H248.691ZM322.246 726.508V902.875H279.59V698.07H319.375L322.246 726.508ZM414.531 770.395V773.266C414.531 784.021 413.301 794.001 410.84 803.207C408.379 812.322 404.688 820.297 399.766 827.133C394.935 833.969 388.965 839.301 381.855 843.129C374.746 846.866 366.497 848.734 357.109 848.734C348.177 848.734 340.43 846.866 333.867 843.129C327.396 839.301 321.927 834.014 317.461 827.27C313.086 820.434 309.531 812.641 306.797 803.891C304.154 795.049 302.103 785.616 300.645 775.59V769.984C302.103 759.32 304.199 749.431 306.934 740.316C309.668 731.202 313.223 723.318 317.598 716.664C321.973 709.919 327.396 704.678 333.867 700.941C340.339 697.204 348.04 695.336 356.973 695.336C366.27 695.336 374.518 697.113 381.719 700.668C388.919 704.223 394.935 709.327 399.766 715.98C404.688 722.543 408.379 730.427 410.84 739.633C413.301 748.839 414.531 759.092 414.531 770.395ZM371.738 773.266V770.395C371.738 764.379 371.283 758.865 370.371 753.852C369.46 748.747 368.001 744.327 365.996 740.59C363.991 736.762 361.348 733.799 358.066 731.703C354.785 729.607 350.775 728.559 346.035 728.559C340.931 728.559 336.602 729.379 333.047 731.02C329.492 732.66 326.621 735.076 324.434 738.266C322.246 741.365 320.651 745.193 319.648 749.75C318.737 754.307 318.236 759.503 318.145 765.336V780.375C318.236 787.211 319.193 793.318 321.016 798.695C322.93 803.982 325.892 808.129 329.902 811.137C334.004 814.053 339.473 815.512 346.309 815.512C351.139 815.512 355.15 814.464 358.34 812.367C361.621 810.18 364.219 807.126 366.133 803.207C368.138 799.288 369.551 794.776 370.371 789.672C371.283 784.568 371.738 779.099 371.738 773.266ZM478.926 636V846H436.27V636H478.926ZM473.32 766.84L462.656 767.113C462.656 756.723 463.932 747.198 466.484 738.539C469.128 729.789 472.865 722.178 477.695 715.707C482.526 709.236 488.314 704.223 495.059 700.668C501.895 697.113 509.414 695.336 517.617 695.336C524.909 695.336 531.562 696.384 537.578 698.48C543.594 700.577 548.789 703.904 553.164 708.461C557.539 713.018 560.911 718.988 563.281 726.371C565.651 733.754 566.836 742.732 566.836 753.305V846H523.906V753.031C523.906 746.742 522.995 741.82 521.172 738.266C519.44 734.711 516.888 732.204 513.516 730.746C510.234 729.288 506.224 728.559 501.484 728.559C495.924 728.559 491.322 729.561 487.676 731.566C484.03 733.48 481.159 736.169 479.062 739.633C476.966 743.096 475.462 747.152 474.551 751.801C473.73 756.449 473.32 761.462 473.32 766.84ZM679.629 684.809L628.223 846H580.645L654.336 646.938H684.414L679.629 684.809ZM722.285 846L670.742 684.809L665.41 646.938H695.898L769.863 846H722.285ZM720.098 771.898V806.352H616.328V771.898H720.098ZM935.703 760.004H884.57L884.297 730.199H926.543C934.017 730.199 940.078 729.288 944.727 727.465C949.466 725.642 952.93 722.999 955.117 719.535C957.305 715.98 958.398 711.605 958.398 706.41C958.398 700.486 957.305 695.701 955.117 692.055C952.93 688.409 949.466 685.766 944.727 684.125C940.078 682.393 934.062 681.527 926.68 681.527H900.703V846H856.133V646.938H926.68C938.62 646.938 949.284 648.031 958.672 650.219C968.06 652.406 976.035 655.779 982.598 660.336C989.251 664.893 994.31 670.59 997.773 677.426C1001.24 684.262 1002.97 692.328 1002.97 701.625C1002.97 709.737 1001.15 717.302 997.5 724.32C993.945 731.339 988.203 737.035 980.273 741.41C972.344 745.785 961.725 748.155 948.418 748.52L935.703 760.004ZM933.926 846H873.223L889.355 811.547H933.926C940.762 811.547 946.322 810.453 950.605 808.266C954.889 806.078 958.034 803.116 960.039 799.379C962.044 795.642 963.047 791.449 963.047 786.801C963.047 781.332 962.09 776.592 960.176 772.582C958.353 768.572 955.436 765.473 951.426 763.285C947.507 761.098 942.266 760.004 935.703 760.004H895.781L896.055 730.199H944.863L955.254 741.957C967.923 741.684 978.04 743.734 985.605 748.109C993.262 752.393 998.776 758.044 1002.15 765.062C1005.52 772.081 1007.21 779.509 1007.21 787.348C1007.21 800.29 1004.43 811.137 998.867 819.887C993.307 828.546 985.059 835.062 974.121 839.438C963.275 843.812 949.876 846 933.926 846ZM1112.21 810.727V747.289C1112.21 742.823 1111.52 738.995 1110.16 735.805C1108.79 732.615 1106.65 730.108 1103.73 728.285C1100.81 726.462 1097.03 725.551 1092.38 725.551C1088.46 725.551 1085.05 726.234 1082.13 727.602C1079.3 728.969 1077.12 730.928 1075.57 733.48C1074.11 736.033 1073.38 739.177 1073.38 742.914H1030.72C1030.72 736.26 1032.23 730.062 1035.23 724.32C1038.24 718.578 1042.53 713.52 1048.09 709.145C1053.74 704.77 1060.48 701.397 1068.32 699.027C1076.16 696.566 1084.95 695.336 1094.71 695.336C1106.28 695.336 1116.58 697.296 1125.61 701.215C1134.72 705.043 1141.92 710.831 1147.21 718.578C1152.49 726.234 1155.14 735.896 1155.14 747.562V809.496C1155.14 818.428 1155.64 825.447 1156.64 830.551C1157.73 835.564 1159.28 839.939 1161.29 843.676V846H1118.22C1116.22 841.716 1114.71 836.43 1113.71 830.141C1112.71 823.76 1112.21 817.289 1112.21 810.727ZM1117.54 755.766L1117.81 779.281H1096.62C1091.88 779.281 1087.78 779.874 1084.32 781.059C1080.94 782.243 1078.21 783.884 1076.11 785.98C1074.02 787.986 1072.47 790.355 1071.46 793.09C1070.55 795.733 1070.1 798.65 1070.1 801.84C1070.1 804.848 1070.83 807.582 1072.29 810.043C1073.74 812.413 1075.75 814.281 1078.3 815.648C1080.85 817.016 1083.82 817.699 1087.19 817.699C1092.75 817.699 1097.49 816.605 1101.41 814.418C1105.42 812.23 1108.52 809.587 1110.7 806.488C1112.89 803.298 1113.98 800.336 1113.98 797.602L1124.24 815.375C1122.6 819.021 1120.59 822.803 1118.22 826.723C1115.85 830.551 1112.85 834.151 1109.2 837.523C1105.55 840.805 1101.13 843.493 1095.94 845.59C1090.83 847.686 1084.68 848.734 1077.48 848.734C1068.18 848.734 1059.75 846.866 1052.19 843.129C1044.62 839.301 1038.56 834.06 1034 827.406C1029.54 820.753 1027.3 813.096 1027.3 804.438C1027.3 796.69 1028.72 789.809 1031.54 783.793C1034.37 777.777 1038.61 772.673 1044.26 768.48C1050 764.288 1057.2 761.143 1065.86 759.047C1074.52 756.859 1084.64 755.766 1096.21 755.766H1117.54ZM1225 729.652V846H1182.21V698.07H1222.4L1225 729.652ZM1219.39 766.84L1208.73 767.113C1208.73 755.993 1210.1 746.013 1212.83 737.172C1215.57 728.331 1219.44 720.811 1224.45 714.613C1229.56 708.324 1235.62 703.539 1242.64 700.258C1249.75 696.977 1257.58 695.336 1266.15 695.336C1273.08 695.336 1279.41 696.339 1285.16 698.344C1290.9 700.349 1295.82 703.585 1299.92 708.051C1304.11 712.426 1307.3 718.259 1309.49 725.551C1311.68 732.751 1312.77 741.638 1312.77 752.211V846H1269.84V752.074C1269.84 745.876 1268.98 741.091 1267.25 737.719C1265.51 734.346 1262.96 731.977 1259.59 730.609C1256.31 729.242 1252.3 728.559 1247.56 728.559C1242.55 728.559 1238.26 729.561 1234.71 731.566C1231.15 733.48 1228.24 736.169 1225.96 739.633C1223.68 743.096 1221.99 747.152 1220.9 751.801C1219.9 756.449 1219.39 761.462 1219.39 766.84ZM1383.59 635.863V846H1340.8V635.863H1383.59ZM1477.52 698.07L1413.12 772.445L1379.08 806.625L1361.99 777.777L1389.61 742.094L1426.11 698.07H1477.52ZM1432.4 846L1390.7 778.051L1421.33 754.125L1481.35 846H1432.4Z" fill="#3498DB"/>
</svg>
